<svg width="160" height="160" viewBox="0 0 160 160" fill="none" xmlns="http://www.w3.org/2000/svg">
<mask id="path-1-inside-1_7_594" fill="white">
<path d="M53.3335 106.667C23.8854 106.667 0 130.551 0 160H106.667C106.667 130.551 82.7812 106.667 53.3331 106.667H53.3335Z"/>
</mask>
<path d="M53.3335 106.667C23.8854 106.667 0 130.551 0 160H106.667C106.667 130.551 82.7812 106.667 53.3331 106.667H53.3335Z" fill="#FEFEFE"/>
<path d="M0 160H-1V161H0V160ZM106.667 160V161H107.667V160H106.667ZM53.3335 105.667C23.3331 105.667 -1 129.999 -1 160H1C1 131.104 24.4376 107.667 53.3335 107.667V105.667ZM0 161H106.667V159H0V161ZM107.667 160C107.667 129.999 83.3334 105.667 53.3331 105.667V107.667C82.2289 107.667 105.667 131.104 105.667 160H107.667ZM53.3331 107.667H53.3335V105.667H53.3331V107.667Z" fill="#883AFF" mask="url(#path-1-inside-1_7_594)"/>
<path d="M0.5 106.164V0.502319C29.4418 0.770843 52.8331 24.3284 52.8331 53.3335C52.8331 82.339 29.4418 105.896 0.5 106.164Z" fill="white" stroke="#02DBFF"/>
<path d="M106.667 52.8331C77.6615 52.8331 54.1043 29.4418 53.8358 0.5H159.498C159.23 29.3724 135.785 52.7206 106.876 52.8331H106.667Z" fill="white" stroke="#FEB23F"/>
<mask id="path-5-inside-2_7_594" fill="white">
<path d="M106.667 106.667C106.667 136.115 130.551 160 160 160V53.3335C130.551 53.3335 106.667 77.2184 106.667 106.667V106.667Z"/>
</mask>
<path d="M106.667 106.667C106.667 136.115 130.551 160 160 160V53.3335C130.551 53.3335 106.667 77.2184 106.667 106.667V106.667Z" fill="white"/>
<path d="M160 160V161H161V160H160ZM160 53.3335H161V52.3335H160V53.3335ZM105.667 106.667C105.667 136.667 129.999 161 160 161V159C131.104 159 107.667 135.562 107.667 106.667H105.667ZM161 160V53.3335H159V160H161ZM160 52.3335C129.999 52.3335 105.667 76.6662 105.667 106.667H107.667C107.667 77.7707 131.104 54.3335 160 54.3335V52.3335ZM107.667 106.667V106.667H105.667V106.667H107.667Z" fill="#00DA71" mask="url(#path-5-inside-2_7_594)"/>
</svg>
