<svg width="161" height="160" viewBox="0 0 161 160" fill="none" xmlns="http://www.w3.org/2000/svg">
<path d="M53.6332 106.667C24.1851 106.667 0.299683 130.551 0.299683 160H106.966C106.966 130.551 83.0809 106.667 53.6328 106.667H53.6332Z" fill="#883AFF"/>
<path d="M53.6327 53.3335C53.6327 23.8854 29.7478 0 0.299683 0V106.667C29.7478 106.667 53.6327 82.7816 53.6327 53.3331V53.3335Z" fill="#02DBFF"/>
<path d="M106.966 53.3335C136.414 53.3335 160.3 29.4485 160.3 0H53.6331C53.6331 29.4481 77.518 53.3331 106.967 53.3331L106.966 53.3335Z" fill="#FEB23F"/>
<path d="M106.966 106.667C106.966 136.115 130.851 160 160.299 160V53.3335C130.851 53.3335 106.966 77.2184 106.966 106.667V106.667Z" fill="#00DA71"/>
</svg>
